# xmcd
#
# Track frame offsets: 
#        150
#        15690
#        28380
#        39674
#        56313
#        74728
#        90224
#        103895
#        120360
#        134542
#        151240
#
# Disc length: 2258 seconds
#
# Revision: 0
# Processed by: cddbd v1.5.2PL0 Copyright (c) Steve Scherf et al.
# Submitted via: ExactAudioCopyFreeDBPlugin 1.0
#
DISCID=9008d00b
DTITLE=Virgis Stakenas - Ziema, Kaledos, Nauji metai
DYEAR=2008
DGENRE=Country
TTITLE0=Paskutine metu nakti
TTITLE1=Ziema
TTITLE2=Mano miela
TTITLE3=Kaledu ryta
TTITLE4=Kaledu zvaigzde
TTITLE5=Palaimos valanda
TTITLE6=Laukiu dovanu
TTITLE7=Akaciju aleja
TTITLE8=Nauji metai Janikunuos
TTITLE9=Kaledu magija
TTITLE10=Malda
EXTD=
EXTT0=
EXTT1=
EXTT2=
EXTT3=
EXTT4=
EXTT5=
EXTT6=
EXTT7=
EXTT8=
EXTT9=
EXTT10=
PLAYORDER=
